<svg xmlns="http://www.w3.org/2000/svg" width="101.5" height="101.5">
    <path fill-rule="evenodd" d="M0 0h99.1v99.1H0V0z"/>
    <path fill-rule="evenodd" fill="#FFF" d="M48.914 45.325h2.066V81.1h-2.066V45.325z"/>
    <path stroke="#FFF" stroke-width="3" fill="none" d="M67.346 29.49c0 2.616-1.759 4.804-4.166 5.544 1.178 2.203.855 4.982-1.025 6.835-1.877 1.851-4.69 2.172-6.923 1.017a5.888 5.888 0 0 1-5.628 4.118 5.889 5.889 0 0 1-5.624-4.107c-2.234 1.162-5.053.843-6.933-1.01-1.883-1.857-2.205-4.641-1.02-6.846-2.419-.733-4.189-2.926-4.189-5.551 0-2.621 1.765-4.812 4.178-5.548-1.171-2.201-.846-4.974 1.031-6.824 1.88-1.854 4.699-2.173 6.933-1.011.751-2.373 2.97-5.007 5.624-5.007 2.659 0 4.881 2.639 5.628 5.018 2.233-1.155 5.046-.833 6.923 1.017 1.874 1.847 2.201 4.615 1.036 6.814 2.402.743 4.155 2.928 4.155 5.541zm-11.141-2.688c-.883-.272-1.72-.727-2.419-1.417a5.746 5.746 0 0 1-1.444-2.408 5.912 5.912 0 0 1-2.738.691 5.92 5.92 0 0 1-2.748-.696 5.74 5.74 0 0 1-1.44 2.396c-.705.696-1.551 1.153-2.442 1.423.432.811.7 1.72.7 2.699 0 .988-.272 1.904-.712 2.719.896.271 1.746.728 2.454 1.427a5.74 5.74 0 0 1 1.44 2.396 5.932 5.932 0 0 1 2.748-.696c.994 0 1.916.264 2.738.691a5.746 5.746 0 0 1 1.444-2.408c.702-.693 1.543-1.148 2.43-1.42-.436-.813-.706-1.725-.706-2.709 0-.975.266-1.88.695-2.688z"/>
    <path stroke="#FFF" stroke-width="3" fill="none" d="M49.592 18.996c5.88 0 10.647 4.701 10.647 10.501s-4.767 10.501-10.647 10.501-10.646-4.701-10.646-10.501 4.766-10.501 10.646-10.501zM50.47 68.695l-1.045-1.044 13.946-13.827 1.045 1.045L50.47 68.695z"/>
    <path stroke="#FFF" stroke-width="3" fill="none" d="m50.631 67.115-1.045 1.744-17.433-17.283 1.045-1.744 17.433 17.283zM77.996 41.947s-.984 14.419-5.239 18.638c-4.255 4.218-10.74 4.629-14.485.916-3.744-3.712-3.33-10.141.925-14.36 4.255-4.218 18.799-5.194 18.799-5.194z"/>
    <path stroke="#FFF" stroke-width="3" fill="none" d="M28.998 48.398s.72 10.51 3.837 13.585c3.117 3.075 7.867 3.374 10.61.668 2.743-2.706 2.439-7.392-.677-10.467-3.117-3.075-13.77-3.786-13.77-3.786z"/>
</svg>
