<svg xmlns="http://www.w3.org/2000/svg" width="101.5" height="101.5">
    <path fill-rule="evenodd" d="M0 0h99.1v99.1H0V0z"/>
    <path fill-rule="evenodd" stroke="#FFF" stroke-width="3" fill="#030303" d="M80.022 51.299a1.4 1.4 0 1 1 0-2.8 1.4 1.4 0 0 1 0 2.8zm-.662-7.841a1.4 1.4 0 1 1-.725-2.703 1.4 1.4 0 0 1 .725 2.703zm-.004 12.881a1.4 1.4 0 1 1-.726 2.706 1.4 1.4 0 0 1 .726-2.706zm-2.664-20.283a1.4 1.4 0 1 1-1.399-2.425 1.4 1.4 0 0 1 1.399 2.425zm-.008 27.684a1.4 1.4 0 1 1-1.401 2.424 1.4 1.4 0 0 1 1.401-2.424zm-6.465-34.144a1.4 1.4 0 1 1 1.979-1.98 1.4 1.4 0 0 1-1.979 1.98zm1.968 40.601a1.4 1.4 0 1 1-1.98 1.981 1.4 1.4 0 0 1 1.98-1.981zm-7.912-45.165a1.4 1.4 0 1 1 1.4-2.426 1.4 1.4 0 0 1-1.4 2.426zm-.015 49.726a1.4 1.4 0 1 1 1.4 2.424 1.4 1.4 0 0 1-1.4-2.424zm-6.909-52.596a1.4 1.4 0 1 1 .725-2.705 1.4 1.4 0 0 1-.725 2.705zm-.016 55.462a1.4 1.4 0 1 1 .724 2.704 1.4 1.4 0 0 1-.724-2.704zm-7.414 3.757a1.4 1.4 0 1 1 0-2.8 1.4 1.4 0 0 1 0 2.8zm0-60.2a1.4 1.4 0 1 1 0-2.8 1.4 1.4 0 0 1 0 2.8zm-8.151 59.13a1.4 1.4 0 1 1 .726-2.704 1.4 1.4 0 0 1-.726 2.704zm.708-58.131a1.4 1.4 0 1 1-.724-2.704 1.4 1.4 0 0 1 .724 2.704zm-8.303 54.987a1.401 1.401 0 1 1 1.401-2.426 1.401 1.401 0 0 1-1.401 2.426zm1.385-52.119a1.4 1.4 0 1 1-1.4-2.426 1.4 1.4 0 0 1 1.4 2.426zm-7.909 47.116a1.4 1.4 0 1 1 1.979-1.98 1.4 1.4 0 0 1-1.979 1.98zm-.012-42.555a1.4 1.4 0 1 1 1.979-1.98 1.4 1.4 0 0 1-1.979 1.98zm-3.082 36.547a1.4 1.4 0 1 1-1.4-2.423 1.4 1.4 0 0 1 1.4 2.423zm-1.408-30.091a1.4 1.4 0 1 1 1.4-2.425 1.4 1.4 0 0 1-1.4 2.425zm-1.937 22.974a1.4 1.4 0 1 1-.725-2.705 1.4 1.4 0 0 1 .725 2.705zm-.73-15.576a1.4 1.4 0 1 1 .725-2.704 1.4 1.4 0 0 1-.725 2.704zm.74 6.436a1.4 1.4 0 1 1-2.8 0 1.4 1.4 0 0 1 2.8 0z"/>
    <path fill-rule="evenodd" stroke="#FFF" stroke-width="3" fill="#030303" d="M75.1 50.1v-2h9v2h-9zm-27 25h2v9h-2v-9zm0-61h2v9h-2v-9zm-34 34h9v2h-9v-2zM48.1 50.1h-17v-2h17v-23h2v25h-2z"/>
    <path fill-rule="evenodd" stroke="#FFF" stroke-width="3" fill="#030303" d="M50.021 46.5c1.933 0 3.5 1.567 3.5 2.6 0 2.833-1.567 4.4-3.5 4.4s-3.5-1.567-3.5-4.4c0-1.033 1.567-2.6 3.5-2.6z"/>
</svg>
