<svg xmlns="http://www.w3.org/2000/svg" width="846.5" height="251.5">
    <defs>
        <filter id="g4tpqeu1ba">
            <feFlood flood-color="#FFF" flood-opacity="1" result="floodOut"/>
            <feComposite operator="atop" in="floodOut" in2="SourceGraphic" result="compOut"/>
            <feBlend in="compOut" in2="SourceGraphic"/>
        </filter>
        <filter id="n31rjaa8qb">
            <feFlood flood-color="#FFF" flood-opacity="1" result="floodOut"/>
            <feComposite operator="atop" in="floodOut" in2="SourceGraphic" result="compOut"/>
            <feBlend in="compOut" in2="SourceGraphic"/>
        </filter>
    </defs>
    <text font-family="PTSans" font-size="15" x="549" y="-1437.905">We are able to serve events from 2 to 2000 guests and always at reasonable prices.</text>
    <text font-family="AkzidenzGroteskBQ" font-size="25" x="549" y="172.925">FITS ANY SIZE AND BUDGET</text>
    <path fill-rule="evenodd" fill="#030303" d="M439.1 149.1h100v100h-100v-100z"/>
    <g filter="url(#g4tpqeu1ba)" stroke="#000" stroke-width="3" fill="none">
        <path d="m518.935 201.469-27.213 27.046a6.97 6.97 0 0 1-3.629 1.911 6.99 6.99 0 0 1-2.842.578l-16.969-.155c-3.904-.035-7.099-3.21-7.134-7.091l-.156-16.864c-.021-2.23 1.027-4.184 2.645-5.457.129-.152.234-.316.378-.459l27.212-27.046a7.03 7.03 0 0 1 9.896 0l17.812 17.703a6.924 6.924 0 0 1 0 9.834zm-41.108 12.297a4.919 4.919 0 0 0-6.926 0 4.846 4.846 0 0 0 0 6.884 4.919 4.919 0 0 0 6.926 0 4.846 4.846 0 0 0 0-6.884z"/>
        <path d="M476.219 223.329s-11.196-10.084-11.196-31.294 4.898-25.935 6.997-25.935 5.948 5.072 6.298 22.458"/>
    </g>
    <text font-family="PTSans" font-size="15" x="109" y="-1437.905">We use only the best organic ingredients and gluten and dairy free cooking.</text>
    <text font-family="AkzidenzGroteskBQ" font-size="25" x="111" y="171.925">CLEAN AND HEALTHY</text>
    <path fill-rule="evenodd" fill="#030303" d="M0 149.1h99.1v100H0v-100z"/>
    <g filter="url(#n31rjaa8qb)" stroke="#000" stroke-width="3" fill="none">
        <path d="M29.285 216.744c-9.726-9.731-9.726-25.509 0-35.24C44.774 166.006 80 165.999 80 165.999s-.007 35.246-15.496 50.745c-9.726 9.731-25.494 9.731-35.219 0z"/>
        <path d="M24.937 233.599s-5.88-47.183 54.329-66.864"/>
        <path d="M55.772 179.961v-.735h-.734v-6.613h1.468v5.878h15.418v1.47H55.772zm9.544 13.226H39.62v-.735h-.734v-13.961h1.468v13.226h24.962v1.47zm-5.873 16.165H30.81v-.735h-1.468v-19.104h1.468v18.369h28.633v1.47z"/>
    </g>
    <text font-family="PTSans" font-size="15" x="113" y="-1437.905">Fresh, seasonal and simple cuisine. Food is our business and our passion.</text>
    <text font-family="AkzidenzGroteskBQ" font-size="25" x="112" y="21.918">ALWAYS FRESH</text>
    <path fill-rule="evenodd" d="M0 0h99.1v99.1H0V0z"/>
    <path fill-rule="evenodd" fill="#FFF" d="M48.914 45.325h2.066V81.1h-2.066V45.325z"/>
    <path stroke="#FFF" stroke-width="3" fill="none" d="M67.346 29.49c0 2.616-1.759 4.804-4.166 5.544 1.178 2.203.855 4.982-1.025 6.835-1.877 1.851-4.69 2.172-6.923 1.017a5.888 5.888 0 0 1-5.628 4.118 5.889 5.889 0 0 1-5.624-4.107c-2.234 1.162-5.053.843-6.933-1.01-1.883-1.857-2.205-4.641-1.02-6.846-2.419-.733-4.189-2.926-4.189-5.551 0-2.621 1.765-4.812 4.178-5.548-1.171-2.201-.846-4.974 1.031-6.824 1.88-1.854 4.699-2.173 6.933-1.011.751-2.373 2.97-5.007 5.624-5.007 2.659 0 4.881 2.639 5.628 5.018 2.233-1.155 5.046-.833 6.923 1.017 1.874 1.847 2.201 4.615 1.036 6.814 2.402.743 4.155 2.928 4.155 5.541zm-11.141-2.688c-.883-.272-1.72-.727-2.419-1.417a5.746 5.746 0 0 1-1.444-2.408 5.912 5.912 0 0 1-2.738.691 5.92 5.92 0 0 1-2.748-.696 5.74 5.74 0 0 1-1.44 2.396c-.705.696-1.551 1.153-2.442 1.423.432.811.7 1.72.7 2.699 0 .988-.272 1.904-.712 2.719.896.271 1.746.728 2.454 1.427a5.74 5.74 0 0 1 1.44 2.396 5.932 5.932 0 0 1 2.748-.696c.994 0 1.916.264 2.738.691a5.746 5.746 0 0 1 1.444-2.408c.702-.693 1.543-1.148 2.43-1.42-.436-.813-.706-1.725-.706-2.709 0-.975.266-1.88.695-2.688z"/>
    <path stroke="#FFF" stroke-width="3" fill="none" d="M49.592 18.996c5.88 0 10.647 4.701 10.647 10.501s-4.767 10.501-10.647 10.501-10.646-4.701-10.646-10.501 4.766-10.501 10.646-10.501zM50.47 68.695l-1.045-1.044 13.946-13.827 1.045 1.045L50.47 68.695z"/>
    <path stroke="#FFF" stroke-width="3" fill="none" d="m50.631 67.115-1.045 1.744-17.433-17.283 1.045-1.744 17.433 17.283zM77.996 41.947s-.984 14.419-5.239 18.638c-4.255 4.218-10.74 4.629-14.485.916-3.744-3.712-3.33-10.141.925-14.36 4.255-4.218 18.799-5.194 18.799-5.194z"/>
    <path stroke="#FFF" stroke-width="3" fill="none" d="M28.998 48.398s.72 10.51 3.837 13.585c3.117 3.075 7.867 3.374 10.61.668 2.743-2.706 2.439-7.392-.677-10.467-3.117-3.075-13.77-3.786-13.77-3.786z"/>
    <text font-family="PTSans" font-size="15" x="550" y="-1437.905">Successful catering is about organisation, high quality service, and great food.</text>
    <text font-family="AkzidenzGroteskBQ" font-size="25" x="553" y="21.918">RELIABLE AND FLAWLESS</text>
    <path fill-rule="evenodd" d="M439.1 0h100v99.1h-100V0z"/>
    <path fill-rule="evenodd" stroke="#FFF" stroke-width="3" fill="#030303" d="M520.022 51.299a1.4 1.4 0 1 1 0-2.8 1.4 1.4 0 0 1 0 2.8zm-.662-7.841a1.4 1.4 0 1 1-.725-2.703 1.4 1.4 0 0 1 .725 2.703zm-.004 12.881a1.4 1.4 0 1 1-.726 2.706 1.4 1.4 0 0 1 .726-2.706zm-2.664-20.283a1.4 1.4 0 1 1-1.399-2.425 1.4 1.4 0 0 1 1.399 2.425zm-.008 27.684a1.4 1.4 0 1 1-1.401 2.424 1.4 1.4 0 0 1 1.401-2.424zm-6.465-34.144a1.4 1.4 0 1 1 1.979-1.98 1.4 1.4 0 0 1-1.979 1.98zm1.968 40.601a1.4 1.4 0 1 1-1.98 1.981 1.4 1.4 0 0 1 1.98-1.981zm-7.912-45.165a1.4 1.4 0 1 1 1.4-2.426 1.4 1.4 0 0 1-1.4 2.426zm-.015 49.726a1.4 1.4 0 1 1 1.4 2.424 1.4 1.4 0 0 1-1.4-2.424zm-6.909-52.596a1.4 1.4 0 1 1 .725-2.705 1.4 1.4 0 0 1-.725 2.705zm-.016 55.462a1.4 1.4 0 1 1 .724 2.704 1.4 1.4 0 0 1-.724-2.704zm-7.414 3.757a1.4 1.4 0 1 1 0-2.8 1.4 1.4 0 0 1 0 2.8zm0-60.2a1.4 1.4 0 1 1 0-2.8 1.4 1.4 0 0 1 0 2.8zm-8.151 59.13a1.4 1.4 0 1 1 .726-2.704 1.4 1.4 0 0 1-.726 2.704zm.708-58.131a1.4 1.4 0 1 1-.724-2.704 1.4 1.4 0 0 1 .724 2.704zm-8.303 54.987a1.401 1.401 0 1 1 1.401-2.426 1.401 1.401 0 0 1-1.401 2.426zm1.385-52.119a1.4 1.4 0 1 1-1.4-2.426 1.4 1.4 0 0 1 1.4 2.426zm-7.909 47.116a1.4 1.4 0 1 1 1.979-1.98 1.4 1.4 0 0 1-1.979 1.98zm-.012-42.555a1.4 1.4 0 1 1 1.979-1.98 1.4 1.4 0 0 1-1.979 1.98zm-3.082 36.547a1.4 1.4 0 1 1-1.4-2.423 1.4 1.4 0 0 1 1.4 2.423zm-1.408-30.091a1.4 1.4 0 1 1 1.4-2.425 1.4 1.4 0 0 1-1.4 2.425zm-1.937 22.974a1.4 1.4 0 1 1-.725-2.705 1.4 1.4 0 0 1 .725 2.705zm-.73-15.576a1.4 1.4 0 1 1 .725-2.704 1.4 1.4 0 0 1-.725 2.704zm.74 6.436a1.4 1.4 0 1 1-2.8 0 1.4 1.4 0 0 1 2.8 0z"/>
    <path fill-rule="evenodd" stroke="#FFF" stroke-width="3" fill="#030303" d="M515.1 50.1v-2h9v2h-9zm-27 25h2v9h-2v-9zm0-61h2v9h-2v-9zm-34 34h9v2h-9v-2zM488.1 50.1h-17v-2h17v-23h2v25h-2z"/>
    <path fill-rule="evenodd" stroke="#FFF" stroke-width="3" fill="#030303" d="M490.021 46.5c1.933 0 3.5 1.567 3.5 2.6 0 2.833-1.567 4.4-3.5 4.4s-3.5-1.567-3.5-4.4c0-1.033 1.567-2.6 3.5-2.6z"/>
</svg>
